<?xml version="1.0" encoding="UTF-8"?>
<svg xmlns="http://www.w3.org/2000/svg" xmlns:xlink="http://www.w3.org/1999/xlink" id="Group_163048" data-name="Group 163048" width="44.443" height="44.443" viewBox="0 0 44.443 44.443">
  <defs>
    <clipPath id="clip-path">
      <rect id="Rectangle_147951" data-name="Rectangle 147951" width="44.443" height="44.443" fill="none"></rect>
    </clipPath>
  </defs>
  <g id="Group_163047" data-name="Group 163047" transform="translate(0 0)" clip-path="url(#clip-path)">
    <rect id="Rectangle_147950" data-name="Rectangle 147950" width="44.443" height="44.443" rx="0.774" transform="translate(0 0)" fill="#563d7c"></rect>
    <path id="Path_16692" data-name="Path 16692" d="M7.542,11.952V5.733h5.479a9.186,9.186,0,0,1,1.509.125,3.911,3.911,0,0,1,1.289.469,2.6,2.6,0,0,1,.894.93,3.16,3.16,0,0,1,.33,1.531,2.808,2.808,0,0,1-1,2.425,4.257,4.257,0,0,1-2.571.74ZM1.689,1.184V27.8h12.9a13.817,13.817,0,0,0,3.479-.447,9.261,9.261,0,0,0,3.018-1.384,6.689,6.689,0,0,0,2.11-2.4,7.325,7.325,0,0,0,.784-3.479,7.331,7.331,0,0,0-1.216-4.27,6.369,6.369,0,0,0-3.67-2.476,6.58,6.58,0,0,0,2.7-2.2,5.822,5.822,0,0,0,.916-3.355A7.127,7.127,0,0,0,22.1,4.649,5.092,5.092,0,0,0,20.36,2.62a7.38,7.38,0,0,0-2.681-1.1,16.352,16.352,0,0,0-3.465-.337ZM7.542,23.247v-7.3h6.373a4.956,4.956,0,0,1,3.055.872,3.452,3.452,0,0,1,1.157,2.93,3.676,3.676,0,0,1-.352,1.714,2.908,2.908,0,0,1-.952,1.062,4.061,4.061,0,0,1-1.377.557,7.989,7.989,0,0,1-1.641.168Z" transform="translate(10.683 8.285)" fill="#fff"></path>
  </g>
</svg>
