<svg width="48" height="48" viewBox="0 0 48 48" fill="none" xmlns="http://www.w3.org/2000/svg">
<path d="M34.3559 16.2777C34.3633 16.3626 34.3665 16.4491 34.3665 16.5362V31.1406C34.3665 32.711 33.1045 33.9765 31.5378 33.9765L31.4257 33.9757L31.4263 39.7531C31.4263 40.9941 30.405 42 29.1453 42C27.8857 42 26.8645 40.9941 26.8645 39.7531L26.8643 33.9757H21.135L21.1357 39.7531C21.1357 40.9941 20.1144 42 18.8547 42C17.5951 42 16.5739 40.9941 16.5739 39.7531L16.5735 33.9757L16.4619 33.9765C14.9443 33.9765 13.7125 32.789 13.637 31.2869L13.6333 31.1406V16.5362C13.6333 16.4491 13.6399 16.3629 13.6474 16.2777H34.3559ZM9.96848 17.5774C11.2281 17.5774 12.2493 18.5835 12.2493 19.8245V29.4637C12.2493 30.7047 11.2281 31.7108 9.96848 31.7108C8.70874 31.7108 7.6875 30.7047 7.6875 29.4639V19.8246C7.68734 18.5836 8.70858 17.5774 9.96848 17.5774ZM38.0317 17.5774C39.2913 17.5774 40.3125 18.5835 40.3125 19.8245V29.4637C40.3125 30.7047 39.2913 31.7108 38.0317 31.7108C36.7719 31.7108 35.7507 30.7047 35.7507 29.4639V19.8246C35.7507 18.5836 36.7719 17.5774 38.0317 17.5774ZM33.6129 6.03175C33.7278 6.09711 33.7672 6.24186 33.7009 6.35506L31.7687 9.65111C33.3114 11.1723 34.255 13.1511 34.2856 15.3184H13.7141C13.7447 13.1513 14.6881 11.1728 16.2303 9.65168L14.2993 6.35506C14.233 6.24185 14.2723 6.0971 14.3872 6.03175C14.5022 5.96639 14.6491 6.00518 14.7154 6.11838L16.5886 9.31612C18.2106 7.87301 20.402 6.90263 22.8537 6.66969H25.146C27.5978 6.90271 29.7892 7.87317 31.4112 9.31629L33.2847 6.11838C33.3511 6.00518 33.498 5.96639 33.6129 6.03175ZM19.7525 10.1596C19.1007 10.1614 18.5739 10.671 18.5757 11.2982C18.5776 11.9316 19.1075 12.4384 19.759 12.4368C20.4109 12.4351 20.9377 11.9253 20.9358 11.2982C20.9339 10.6646 20.404 10.1579 19.7525 10.1596ZM28.5612 10.1596C27.9094 10.1614 27.3826 10.671 27.3844 11.2982C27.3863 11.9316 27.9162 12.4384 28.5677 12.4368C29.2196 12.4351 29.7464 11.9253 29.7445 11.2982C29.7426 10.6646 29.2127 10.1579 28.5612 10.1596Z" fill="#0B0C0D"/>
</svg>
