<svg width="48" height="48" viewBox="0 0 48 48" fill="none" xmlns="http://www.w3.org/2000/svg">
<path d="M34.2515 25.1882C34.3043 30.9389 39.2382 32.8525 39.2929 32.8769C39.2512 33.0118 38.5045 35.604 36.6934 38.2815C35.1278 40.5964 33.503 42.9028 30.9433 42.9505C28.4282 42.9974 27.6194 41.4418 24.7439 41.4418C21.8693 41.4418 20.9707 42.9028 18.5898 42.9975C16.1191 43.0921 14.2376 40.4943 12.6591 38.1879C9.43336 33.4701 6.96826 24.8565 10.2783 19.0422C11.9226 16.1547 14.8612 14.3263 18.0507 14.2794C20.4769 14.2326 22.7669 15.9307 24.2501 15.9307C25.7324 15.9307 28.5152 13.8886 31.4408 14.1885C32.6655 14.2401 36.1034 14.689 38.3109 17.9579C38.133 18.0694 34.2088 20.3805 34.2515 25.1882ZM29.5246 11.0673C30.8363 9.46099 31.7192 7.2249 31.4783 5C29.5876 5.07688 27.3012 6.27462 25.945 7.88002C24.7296 9.30167 23.6652 11.5771 23.9524 13.758C26.0598 13.9229 28.2128 12.6746 29.5246 11.0673Z" fill="#0B0C0D"/>
</svg>
