<svg width="64" height="64" viewBox="0 0 64 64" fill="none" xmlns="http://www.w3.org/2000/svg">
<g clip-path="url(#clip0_499_2275)">
<path d="M56.6907 29.6914C56.5237 28.4857 56.2109 27.3116 55.9402 26.1287C55.9209 26.0513 55.9297 25.9072 55.8611 25.9125C55.7908 25.9178 55.8084 26.0619 55.7943 26.1445C55.1949 29.7512 53.5779 32.8324 51.0152 35.4284C50.1786 36.2739 49.2734 37.0384 48.3172 37.7468C48.2821 37.7714 48.2188 37.7819 48.2364 37.8452C48.2381 37.8505 48.3137 37.8382 48.3542 37.8294C49.3437 37.622 50.3315 37.4128 51.3211 37.2054C52.0347 37.0543 52.7501 36.9101 53.4619 36.752C53.6131 36.7186 53.65 36.759 53.6359 36.8978C53.6271 36.9734 53.6306 37.0508 53.6236 37.1281C53.5621 37.8435 53.4478 38.5483 53.2967 39.2496C52.6253 42.3782 51.2877 45.1799 49.1908 47.6072C47.8708 49.1346 46.3276 50.3984 44.6437 51.4987C40.7558 54.0438 36.5111 55.4148 31.2891 55.4095C30.2222 55.4165 28.6192 55.2443 27.0303 54.9332C24.2022 54.376 21.5657 53.3425 19.1718 51.7219C16.4158 49.857 14.2837 47.4157 12.5964 44.5683C10.7438 41.4396 9.68042 38.0614 9.42205 34.4336C9.2744 32.3648 9.3992 30.3084 9.7437 28.2642C10.2394 25.3096 11.2781 22.5641 12.9409 20.0683C15.0922 16.8377 17.915 14.3717 21.4075 12.6756C22.731 12.0323 24.0985 11.512 25.5028 11.0796C25.9475 10.9443 26.3465 10.9917 26.7121 11.2853C26.8053 11.3591 26.9107 11.4188 27.0144 11.4751C28.6086 12.3399 31.0008 11.2835 31.1397 9.07412C31.2328 7.60297 30.2151 6.30581 28.7422 6.04392C27.3238 5.79258 25.937 6.65735 25.5415 8.06171C25.4185 8.49937 25.1548 8.7595 24.7312 8.88957C24.4219 8.98273 24.1161 9.08643 23.812 9.19364C19.9979 10.5365 16.5599 12.491 13.723 15.4175C12.0972 17.0961 10.7825 18.9943 9.75424 21.0895C8.67504 23.2918 7.96143 25.6119 7.48687 28.0111C6.98066 30.5808 6.84884 33.1646 7.18982 35.7641C7.58354 38.7768 8.44479 41.6488 9.82455 44.3591C12.164 48.9501 15.6582 52.3986 20.2281 54.7556C22.7556 56.0598 25.4466 56.8824 28.2483 57.3464C30.8215 57.7735 33.4 57.7946 35.9592 57.2779C41.4307 56.1741 46.2028 53.7467 50.0784 49.6707C51.8765 47.7795 53.3793 45.6791 54.5288 43.3344C55.8224 40.6961 56.6116 37.9173 56.8524 34.9855C56.9983 33.2155 56.935 31.4509 56.6907 29.6914ZM28.2219 7.40611C29.15 7.40962 29.7265 7.98613 29.7247 8.9089C29.7247 9.7227 29.0973 10.3396 28.2729 10.3396C27.4662 10.3414 26.7772 9.66997 26.7877 8.89309C26.7982 8.10565 27.4749 7.40435 28.2219 7.40611Z" fill="black"/>
<path d="M42.8119 26.5539C42.4551 26.4344 42.0965 26.3167 41.7204 26.2165C41.7802 25.9581 41.8399 25.7208 41.8786 25.4818C42.6924 21.4919 42.1563 18.2965 40.3301 17.2243C38.5636 16.2119 35.7057 17.2647 32.788 19.7852C32.5103 20.0242 32.2326 20.2809 31.9549 20.5586C31.7756 20.3793 31.577 20.2018 31.3994 20.0418C28.3622 17.3421 25.325 16.2101 23.4988 17.263C21.7323 18.2947 21.2156 21.3126 21.9503 25.0845C22.0294 25.4413 22.1085 25.8192 22.2086 26.1954C21.7728 26.3149 21.3544 26.4538 20.959 26.5926C17.3856 27.8423 15.1235 29.788 15.1235 31.8129C15.1235 33.8974 17.5649 36.0014 21.2771 37.2721C21.5741 37.3706 21.8729 37.4708 22.1893 37.5498C22.0909 37.9664 21.9907 38.3636 21.9309 38.7609C21.2367 42.473 21.7728 45.4101 23.5181 46.4225C25.325 47.4753 28.3622 46.4032 31.3186 43.8018C31.5576 43.6032 31.7949 43.3853 32.0129 43.1462C32.3099 43.4433 32.628 43.7227 32.9251 43.9794C35.783 46.4401 38.6217 47.4332 40.3688 46.4207C42.1756 45.3679 42.7697 42.2129 41.9964 38.3619C41.9366 38.0648 41.8768 37.766 41.7977 37.469C42.0157 37.4092 42.2143 37.3495 42.4323 37.2704C46.3026 35.9996 48.8038 33.915 48.8038 31.8111C48.8073 29.7687 46.445 27.823 42.8119 26.5539ZM41.9788 35.9029C41.7995 35.9627 41.6009 36.0224 41.4023 36.0822C40.9857 34.7323 40.4092 33.3033 39.6956 31.8146C40.3705 30.3663 40.9259 28.9567 41.3425 27.6068C41.68 27.7052 42.0174 27.8054 42.3356 27.9249C45.4519 28.9971 47.3572 30.5843 47.3572 31.8146C47.3572 33.103 45.313 34.7903 41.9788 35.9029ZM40.5885 38.6414C40.9259 40.348 40.9664 41.8772 40.7467 43.0882C40.548 44.1604 40.1508 44.8951 39.6358 45.1728C38.583 45.788 36.3015 44.9935 33.8602 42.8896C33.5824 42.6506 33.3047 42.3939 33.0059 42.1162C33.9586 41.0845 34.9112 39.8735 35.8252 38.5236C37.4528 38.3847 39.0013 38.1457 40.3899 37.8293C40.4707 38.1053 40.5287 38.383 40.5885 38.6414ZM26.5958 45.0726C25.564 45.4294 24.7291 45.4505 24.2335 45.1517C23.1613 44.5365 22.7254 42.1742 23.3406 38.9982C23.4003 38.6414 23.4988 38.2635 23.5796 37.8873C24.9699 38.1844 26.478 38.4041 28.1249 38.5429C29.0582 39.8524 30.0302 41.0634 31.0233 42.1162C30.8053 42.3149 30.5874 42.5135 30.3888 42.7121C29.0565 43.8616 27.747 44.6754 26.5958 45.0726ZM21.7323 35.9029C20.0854 35.3475 18.7355 34.6128 17.8022 33.8183C16.9691 33.103 16.5525 32.3894 16.5525 31.8129C16.5525 30.5825 18.3787 29.0147 21.4353 27.9618C21.8132 27.823 22.1893 27.7035 22.5865 27.605C23.0031 28.9742 23.5585 30.4032 24.2335 31.8533C23.5585 33.3227 23.0031 34.771 22.5655 36.1613C22.2877 36.0804 22.01 35.982 21.7323 35.9029ZM23.3599 24.8068C22.7254 21.571 23.1613 19.1296 24.2141 18.5144C25.3461 17.8588 27.8261 18.7921 30.4661 21.114C30.6243 21.2722 30.8036 21.411 30.9618 21.5903C29.9898 22.6432 29.0161 23.8331 28.0827 25.1425C26.4956 25.2814 24.9857 25.5204 23.5972 25.8368C23.5181 25.5011 23.439 25.1443 23.3599 24.8068ZM37.8887 28.3995C37.5512 27.823 37.2138 27.2676 36.857 26.7121C37.9291 26.851 38.9609 27.0303 39.9329 27.2482C39.6358 28.1815 39.2773 29.1535 38.8607 30.1466C38.5636 29.5701 38.2262 28.9742 37.8887 28.3995ZM31.9742 22.6238C32.6298 23.3392 33.3047 24.153 33.9586 25.0248C33.303 24.9844 32.628 24.9844 31.9531 24.9844C31.2782 24.9844 30.6226 25.0037 29.9687 25.0248C30.6243 24.1512 31.2993 23.3568 31.9742 22.6238ZM25.9999 28.3995C25.6624 28.976 25.3443 29.5507 25.0473 30.1466C24.6307 29.1535 24.2739 28.1815 23.9751 27.2289C24.9277 27.0109 25.9595 26.8317 27.0317 26.7121C26.6942 27.2676 26.3374 27.823 25.9999 28.3995ZM27.0721 37.0138C25.9612 36.8942 24.9277 36.7167 23.9751 36.5181C24.2721 35.5655 24.6307 34.553 25.0666 33.5406C25.3636 34.1171 25.6818 34.7112 26.0193 35.2877C26.3567 35.8625 26.7135 36.439 27.0721 37.0138ZM32.0146 41.0827C31.3397 40.348 30.6454 39.5342 29.9898 38.6607C30.6243 38.68 31.2993 38.7011 31.9549 38.7011C32.6491 38.7011 33.3241 38.6818 33.9797 38.6607C33.3241 39.5553 32.6685 40.3691 32.0146 41.0827ZM38.8818 33.4809C39.3388 34.5126 39.7149 35.5057 40.0137 36.439C39.0417 36.657 37.9889 36.8362 36.8781 36.9751C37.2349 36.4197 37.5723 35.8432 37.9098 35.2684C38.2473 34.6726 38.5636 34.0767 38.8818 33.4809ZM36.6583 34.553C36.1223 35.4653 35.5862 36.3388 35.0501 37.1526C34.057 37.2317 33.0253 37.251 31.9742 37.251C30.9214 37.251 29.9107 37.2106 28.9176 37.1526C28.3411 36.3195 27.7857 35.4459 27.2707 34.5319C26.754 33.6391 26.2776 32.7251 25.8417 31.8129C26.2776 30.8989 26.7557 30.006 27.2707 29.0938C27.7875 28.2009 28.3429 27.3273 28.8983 26.4942C29.8914 26.4151 30.9231 26.3747 31.9742 26.3747C33.027 26.3747 34.0394 26.4151 35.0501 26.4942C35.6055 27.308 36.1416 28.1815 36.6777 29.0938C37.2138 30.0077 37.6901 30.92 38.126 31.7935C37.6708 32.7268 37.1751 33.6391 36.6583 34.553ZM39.6165 18.474C40.7484 19.1296 41.1843 21.7485 40.4707 25.183C40.4303 25.4009 40.3723 25.6189 40.3125 25.8579C38.9222 25.5398 37.3948 25.3025 35.8059 25.1425C34.8726 23.8331 33.9199 22.6221 32.9673 21.5903C33.2256 21.3319 33.484 21.0947 33.7406 20.875C36.2418 18.713 38.5636 17.8588 39.6165 18.474ZM31.9549 28.7967C33.6229 28.7967 34.9728 30.1466 34.9728 31.8146C34.9728 33.4826 33.6229 34.8325 31.9549 34.8325C30.2868 34.8325 28.937 33.4826 28.937 31.8146C28.937 30.1466 30.2868 28.7967 31.9549 28.7967Z" fill="black"/>
</g>
<defs>
<clipPath id="clip0_499_2275">
<rect width="49.9298" height="51.6663" fill="white" transform="translate(7 6)"/>
</clipPath>
</defs>
</svg>
